<!-- Generated by IcoMoon.io -->
<svg version="1.1" xmlns="http://www.w3.org/2000/svg" width="1024" height="1024" viewBox="0 0 1024 1024">
<g id="icomoon-ignore">
</g>
<path fill="#000" d="M865.958 417.96l-319.998 319.998c-4.46 4.474-9.758 8.026-15.593 10.451-5.834 2.419-12.090 3.667-18.407 3.667s-12.573-1.248-18.408-3.667c-5.834-2.426-11.133-5.978-15.592-10.451l-320-319.998c-9.018-9.018-14.083-21.247-14.083-34s5.066-24.983 14.083-34c9.017-9.018 21.247-14.083 34-14.083s24.982 5.066 34 14.083l286.040 286.040 286.042-286.080c9.018-9.017 21.248-14.083 33.997-14.083 12.755 0 24.986 5.066 34.003 14.083s14.080 21.248 14.080 34c0 12.753-5.062 24.983-14.080 34l-0.083 0.040z"></path>
</svg>
