<!-- Generated by IcoMoon.io -->
<svg version="1.1" xmlns="http://www.w3.org/2000/svg" width="973" height="1024" viewBox="0 0 973 1024">
	<g id="icomoon-ignore">
</g>
	<path d="M486.4 100.913c-78.163 0-154.571 23.178-219.561 66.603s-115.644 105.147-145.556 177.36c-29.912 72.214-37.738 151.675-22.489 228.339 15.249 76.657 52.888 147.077 108.157 202.348s125.688 92.908 202.349 108.155c76.661 15.252 156.122 7.424 228.334-22.487 72.218-29.911 133.939-80.568 177.362-145.556 43.428-64.988 66.606-141.399 66.606-219.561-0.113-104.78-41.784-205.236-115.876-279.327s-174.546-115.763-279.327-115.873zM659.907 426.421l-212.798 212.801c-2.823 2.826-6.176 5.069-9.867 6.6-3.69 1.526-7.646 2.314-11.641 2.314s-7.951-0.788-11.641-2.314c-3.69-1.531-7.043-3.773-9.867-6.6l-91.2-91.203c-5.704-5.704-8.909-13.44-8.909-21.509 0-8.064 3.205-15.801 8.909-21.506s13.441-8.909 21.508-8.909c8.067 0 15.804 3.205 21.508 8.909l69.692 69.731 191.293-191.331c2.821-2.825 6.175-5.065 9.866-6.594s7.644-2.315 11.643-2.315c3.994 0 7.946 0.786 11.638 2.315s7.045 3.769 9.866 6.594c2.826 2.824 5.069 6.178 6.595 9.868 1.531 3.69 2.314 7.646 2.314 11.64s-0.783 7.949-2.314 11.64c-1.526 3.69-3.768 7.044-6.595 9.868z" fill="#01AB31"></path>
</svg>