<!-- Generated by IcoMoon.io -->
<svg version="1.1" xmlns="http://www.w3.org/2000/svg" width="1024" height="1024" viewBox="0 0 1024 1024">
<g id="icomoon-ignore">
</g>
<path fill="#000" d="M929.958 862.042l-189.961-190.042c56.96-74.223 83.55-167.33 74.381-260.434-9.165-93.106-53.406-179.239-123.746-240.926-70.336-61.687-161.506-94.31-255.014-91.249-93.504 3.060-182.346 41.574-248.5 107.728s-104.668 154.996-107.728 248.5c-3.060 93.508 29.562 184.678 91.249 255.014 61.687 70.34 147.82 114.581 240.926 123.746 93.105 9.169 186.212-17.421 260.435-74.377l190.118 190.157c4.467 4.467 9.766 8.009 15.599 10.423 5.837 2.419 12.087 3.661 18.402 3.661s12.565-1.242 18.402-3.661c5.833-2.415 11.132-5.956 15.599-10.423 4.463-4.463 8.004-9.766 10.423-15.599 2.415-5.833 3.661-12.087 3.661-18.402 0-6.31-1.246-12.565-3.661-18.398-2.419-5.833-5.961-11.136-10.423-15.599l-0.162-0.119zM176 448c0-53.796 15.953-106.385 45.841-151.115s72.368-79.593 122.070-100.18c49.702-20.587 104.393-25.974 157.155-15.478s101.227 36.401 139.268 74.441c38.042 38.040 63.945 86.505 74.441 139.268s5.107 107.452-15.479 157.154-55.45 92.181-100.177 122.069c-44.732 29.888-97.323 45.841-151.117 45.841-72.116-0.073-141.258-28.753-192.251-79.748s-79.675-120.137-79.749-192.252z"></path>
</svg>
