<svg aria-hidden="true" style="position: absolute; width: 0; height: 0; overflow: hidden;" version="1.1" xmlns="http://www.w3.org/2000/svg" xmlns:xlink="http://www.w3.org/1999/xlink">
  <defs>
    <symbol id="logo" viewBox="0 0 200 32">
      <path d="M14.616 31.341c-9.744-0.034-14.347-3.058-14.112-10.382h8.366c0.101 1.915 1.714 3.091 5.746 3.125 3.562 0.034 5.208-0.974 5.208-2.285 0-0.907-0.504-1.848-3.259-2.251l-3.629-0.571c-5.342-0.874-11.76-1.512-11.76-8.736 0-5.578 4.536-9.005 13.507-9.005 8.098 0 13.742 2.251 13.574 10.315h-8.299c-0.336-1.882-1.915-3.058-5.477-3.058-3.091 0-4.368 0.941-4.368 2.218 0 0.806 0.504 1.781 2.654 2.117l2.99 0.504c5.611 0.941 13.306 1.109 13.306 8.837 0 6.149-4.771 9.206-14.448 9.173zM51.086 2.176h9.307v28.224h-9.307v-10.214h-10.954v10.214h-9.307v-28.224h9.307v10.214h10.954v-10.214zM78.248 31.341c-9.71 0-15.994-6.014-15.994-15.053s6.283-15.053 15.994-15.053c9.71 0 15.994 6.014 15.994 15.053s-6.283 15.053-15.994 15.053zM78.248 23.31c3.696 0 6.754-2.554 6.754-7.022s-3.058-7.022-6.754-7.022c-3.696 0-6.754 2.554-6.754 7.022s3.058 7.022 6.754 7.022zM96.109 30.4v-28.224h16.027c7.694 0 12.264 3.427 12.264 11.021s-4.57 11.021-12.23 11.021h-6.754v6.182h-9.307zM105.416 16.49h5.914c2.251 0 3.696-1.109 3.696-3.293s-1.445-3.293-3.662-3.293h-5.947v6.586zM129.056 30.938c-2.52 0-4.637-2.083-4.637-4.57s2.117-4.57 4.637-4.57c2.52 0 4.637 2.083 4.637 4.57s-2.117 4.57-4.637 4.57zM151.391 31.341c-9.509 0-15.859-6.014-15.859-15.053s6.35-15.053 15.859-15.053c6.888 0 13.944 3.024 14.885 12.566h-8.87c-0.773-3.091-2.957-4.536-6.014-4.536-3.696 0-6.619 2.755-6.619 7.022s2.923 7.022 6.619 7.022c3.058 0 5.242-1.445 6.014-4.603h8.87c-0.941 9.61-7.929 12.634-14.885 12.634zM183.97 31.341c-9.71 0-15.994-6.014-15.994-15.053s6.283-15.053 15.994-15.053c9.71 0 15.994 6.014 15.994 15.053s-6.283 15.053-15.994 15.053zM183.97 23.31c3.696 0 6.754-2.554 6.754-7.022s-3.058-7.022-6.754-7.022c-3.696 0-6.754 2.554-6.754 7.022s3.058 7.022 6.754 7.022z"></path>
    </symbol>
    <symbol id="menu" viewBox="0 0 32 32">
      <path d="M28.5 16c0 0.398-0.158 0.779-0.439 1.061s-0.663 0.439-1.061 0.439h-22c-0.398 0-0.779-0.158-1.061-0.439s-0.439-0.663-0.439-1.061c0-0.398 0.158-0.779 0.439-1.061s0.663-0.439 1.061-0.439h22c0.398 0 0.779 0.158 1.061 0.439s0.439 0.663 0.439 1.061zM5 9.5h22c0.398 0 0.779-0.158 1.061-0.439s0.439-0.663 0.439-1.061c0-0.398-0.158-0.779-0.439-1.061s-0.663-0.439-1.061-0.439h-22c-0.398 0-0.779 0.158-1.061 0.439s-0.439 0.663-0.439 1.061c0 0.398 0.158 0.779 0.439 1.061s0.663 0.439 1.061 0.439zM27 22.5h-22c-0.398 0-0.779 0.158-1.061 0.439s-0.439 0.663-0.439 1.061c0 0.398 0.158 0.779 0.439 1.061s0.663 0.439 1.061 0.439h22c0.398 0 0.779-0.158 1.061-0.439s0.439-0.663 0.439-1.061c0-0.398-0.158-0.779-0.439-1.061s-0.663-0.439-1.061-0.439z"></path>
    </symbol>
    <symbol id="arrow" viewBox="0 0 32 32">
      <path d="M27.061 13.061l-10 10c-0.139 0.14-0.305 0.251-0.487 0.327s-0.378 0.115-0.575 0.115-0.393-0.039-0.575-0.115c-0.182-0.076-0.348-0.187-0.487-0.327l-10-10c-0.282-0.282-0.44-0.664-0.44-1.063s0.158-0.781 0.44-1.063c0.282-0.282 0.664-0.44 1.063-0.44s0.781 0.158 1.063 0.44l8.939 8.939 8.939-8.94c0.282-0.282 0.664-0.44 1.062-0.44s0.781 0.158 1.063 0.44 0.44 0.664 0.44 1.063c0 0.399-0.158 0.781-0.44 1.063l-0.003 0.001z"></path>
    </symbol>
    <symbol id="search" viewBox="0 0 32 32">
      <path d="M29.061 26.939l-5.936-5.939c1.78-2.319 2.611-5.229 2.324-8.139s-1.669-5.601-3.867-7.529c-2.198-1.928-5.047-2.947-7.969-2.852s-5.698 1.299-7.766 3.366-3.271 4.844-3.366 7.766c-0.096 2.922 0.924 5.771 2.852 7.969s4.619 3.581 7.529 3.867c2.91 0.287 5.819-0.544 8.139-2.324l5.941 5.942c0.14 0.14 0.305 0.25 0.487 0.326s0.378 0.114 0.575 0.114 0.393-0.039 0.575-0.114c0.182-0.075 0.348-0.186 0.487-0.326s0.25-0.305 0.326-0.487c0.075-0.182 0.114-0.378 0.114-0.575s-0.039-0.393-0.114-0.575c-0.076-0.182-0.186-0.348-0.326-0.487l-0.005-0.004zM5.5 14c0-1.681 0.499-3.325 1.433-4.722s2.261-2.487 3.815-3.131c1.553-0.643 3.262-0.812 4.911-0.484s3.163 1.138 4.352 2.326c1.189 1.189 1.998 2.703 2.326 4.352s0.16 3.358-0.484 4.911-1.733 2.881-3.131 3.815c-1.398 0.934-3.041 1.433-4.722 1.433-2.254-0.002-4.414-0.899-6.008-2.492s-2.49-3.754-2.492-6.008z"></path>
    </symbol>
    <symbol id="cart" viewBox="0 0 32 32">
      <path d="M12.5 27c0 0.494-0.147 0.978-0.421 1.389s-0.665 0.732-1.122 0.921c-0.457 0.189-0.959 0.239-1.444 0.142s-0.93-0.335-1.28-0.684-0.588-0.795-0.684-1.28c-0.096-0.485-0.047-0.988 0.142-1.444s0.51-0.847 0.921-1.122c0.411-0.275 0.894-0.421 1.389-0.421 0.663 0 1.299 0.263 1.768 0.732s0.732 1.105 0.732 1.768zM23 24.5c-0.494 0-0.978 0.147-1.389 0.421s-0.732 0.665-0.921 1.122c-0.189 0.457-0.239 0.959-0.142 1.444s0.335 0.93 0.684 1.28 0.795 0.588 1.28 0.684c0.485 0.096 0.988 0.047 1.444-0.142s0.847-0.51 1.122-0.921c0.275-0.411 0.421-0.895 0.421-1.389 0-0.663-0.263-1.299-0.732-1.768s-1.105-0.732-1.768-0.732zM29.434 9.441l-3.411 11.088c-0.218 0.717-0.661 1.345-1.264 1.79s-1.333 0.684-2.082 0.681h-12.31c-0.76-0.002-1.499-0.251-2.106-0.709s-1.049-1.1-1.26-1.83l-4.274-14.961h-1.226c-0.398 0-0.779-0.158-1.061-0.439s-0.439-0.663-0.439-1.061c0-0.398 0.158-0.779 0.439-1.061s0.663-0.439 1.061-0.439h1.602c0.543 0.002 1.071 0.179 1.504 0.506s0.749 0.786 0.9 1.307l0.911 3.186h21.582c0.235 0 0.466 0.055 0.676 0.161s0.391 0.259 0.531 0.448 0.233 0.408 0.272 0.639c0.039 0.231 0.024 0.469-0.045 0.693zM25.969 10.5h-18.695l2.611 9.137c0.030 0.105 0.093 0.197 0.18 0.262s0.193 0.101 0.301 0.101h12.31c0.107 0 0.211-0.034 0.297-0.097s0.15-0.153 0.181-0.255l2.814-9.147z"></path>
    </symbol>
    <symbol id="user" viewBox="0 0 32 32">
      <path d="M16 2.5c-2.67 0-5.28 0.792-7.5 2.275s-3.95 3.592-4.972 6.059c-1.022 2.467-1.289 5.181-0.768 7.8s1.807 5.024 3.695 6.912 4.293 3.174 6.912 3.695c2.619 0.521 5.333 0.253 7.8-0.768s4.575-2.752 6.059-4.972c1.483-2.22 2.275-4.83 2.275-7.5-0.004-3.579-1.428-7.011-3.958-9.542s-5.962-3.954-9.542-3.958zM9.946 24.571c0.696-0.952 1.607-1.727 2.659-2.26s2.215-0.812 3.394-0.812c1.18 0 2.343 0.278 3.394 0.812s1.963 1.308 2.659 2.26c-1.769 1.255-3.885 1.929-6.054 1.929s-4.284-0.674-6.054-1.929zM12.5 15c0-0.692 0.205-1.369 0.59-1.944s0.931-1.024 1.571-1.289c0.639-0.265 1.343-0.334 2.022-0.199s1.303 0.468 1.792 0.958c0.489 0.489 0.823 1.113 0.958 1.792s0.066 1.383-0.199 2.022c-0.265 0.64-0.713 1.186-1.289 1.571s-1.252 0.59-1.945 0.59c-0.928 0-1.819-0.369-2.475-1.025s-1.025-1.547-1.025-2.475zM24.25 22.493c-0.972-1.237-2.211-2.237-3.625-2.928 0.901-0.912 1.512-2.071 1.756-3.329s0.111-2.561-0.384-3.744c-0.494-1.183-1.327-2.193-2.395-2.904s-2.321-1.090-3.603-1.090-2.536 0.379-3.603 1.090c-1.067 0.711-1.9 1.721-2.395 2.904s-0.628 2.486-0.384 3.744c0.244 1.259 0.855 2.417 1.756 3.329-1.414 0.69-2.653 1.691-3.625 2.928-1.221-1.548-1.982-3.409-2.195-5.369s0.13-3.941 0.99-5.715c0.86-1.774 2.203-3.27 3.874-4.317s3.603-1.602 5.575-1.602c1.972 0 3.904 0.555 5.575 1.602s3.013 2.543 3.874 4.317c0.86 1.774 1.203 3.755 0.99 5.715s-0.974 3.821-2.195 5.369h0.013z"></path>
    </symbol>
    <symbol id="close" viewBox="0 0 31 32">
      <path d="M25.019 23.621c0.27 0.27 0.423 0.637 0.423 1.020s-0.152 0.75-0.423 1.020c-0.27 0.271-0.637 0.423-1.020 0.423s-0.749-0.152-1.020-0.423l-7.619-7.621-7.621 7.619c-0.271 0.271-0.637 0.423-1.020 0.423s-0.749-0.152-1.020-0.423c-0.271-0.27-0.423-0.637-0.423-1.020s0.152-0.75 0.423-1.020l7.621-7.619-7.619-7.621c-0.271-0.271-0.423-0.637-0.423-1.020s0.152-0.749 0.423-1.020c0.271-0.271 0.637-0.423 1.020-0.423s0.749 0.152 1.020 0.423l7.619 7.621 7.621-7.622c0.271-0.271 0.637-0.423 1.020-0.423s0.749 0.152 1.020 0.423c0.27 0.271 0.422 0.637 0.422 1.020s-0.152 0.749-0.422 1.020l-7.621 7.622 7.619 7.621z"></path>
    </symbol>
    <symbol id="versace" viewBox="0 0 157 32">
      <path d="M141.345 0.617h15.344v2.445c-0.446-0.15-0.913-0.227-1.383-0.228h-8.82v11.424h8.58c0.616 0 1.165-0.068 1.622-0.183v2.434c-0.389-0.091-0.924-0.137-1.588-0.137h-8.614v11.813h8.556c0.47 0 1.029-0.068 1.645-0.217v2.628h-15.32c0.122-0.462 0.184-0.938 0.184-1.416v-27.112c0-0.594-0.069-1.085-0.206-1.451zM137.793 8.397l-4.433-0.034c-0.217-2.491-1.645-4.903-4.787-5.347-6.729-0.606-8.626 6.785-8.455 12.19 0.172 5.209 1.005 13.218 7.952 13.218 2.914 0 5.712-2.994 5.621-5.518l4.102-0.034c-0.297 5.209-6.272 8.225-9.117 8.328-9.721 0.332-13.79-6.147-13.995-15.39-0.183-8.373 3.245-15.811 12.853-15.811 8.226 0.115 9.814 4.982 10.26 8.397zM68.65 27.191l2.937-2.456c1.53 2.525 2.787 3.678 5.826 3.678 3.084 0 5.678-1.873 5.678-5.186 0-1.634-0.663-2.971-1.977-3.976-0.595-0.469-2.103-1.28-4.479-2.411-3.553-1.702-7.014-3.919-7.014-8.374 0-5.621 4.775-8.101 9.813-8.284 2.982-0.114 6.684 1.532 8.18 3.382l-2.982 2.296c-0.532-0.992-1.322-1.822-2.288-2.401s-2.070-0.886-3.196-0.888c-3.805 0-6.821 4.41-3.668 7.449 0.799 0.777 2.434 1.736 4.925 2.878 3.975 1.863 7.368 4.090 7.368 9.014 0 1.702-0.446 3.29-1.325 4.741-1.77 2.925-4.73 4.387-8.865 4.387-4.753 0-5.689-1.085-8.935-3.851zM26.813 0.617h15.331v2.445c-0.445-0.15-0.912-0.227-1.382-0.228h-8.819v11.424h8.58c0.617 0 1.166-0.068 1.622-0.183v2.434c-0.389-0.091-0.925-0.137-1.576-0.137h-8.626v11.813h8.557c0.468 0 1.029-0.068 1.645-0.217v2.628h-15.308c0.112-0.464 0.169-0.939 0.171-1.416v-27.112c0-0.594-0.069-1.085-0.194-1.451zM0 0.617h5.575v0.275c0 0.251 0.080 0.582 0.217 1.005l7.859 23.66 8.066-23.764c0.125-0.399 0.194-0.788 0.194-1.177h2.708c-0.274 0.48-0.48 0.903-0.606 1.28l-9.209 27.477c-0.091 0.263-0.171 0.674-0.239 1.223h-4.57c-0.069-0.415-0.172-0.824-0.308-1.223l-9.025-27.26c-0.208-0.503-0.426-1.002-0.652-1.497h-0.011zM59.214 16.247c3.656-0.72 6.455-3.519 6.455-7.518 0-5.245-4.387-8.113-9.3-8.113h-8.98c0.125 0.458 0.194 0.937 0.194 1.44v27.099c0 0.583-0.069 1.074-0.194 1.44h5.347c-0.131-0.469-0.196-0.953-0.194-1.44v-12.452l1.713 0.183 8.958 13.709h5.381l-9.38-14.349zM58.288 13.962c-0.971 0.685-2.137 1.027-3.473 1.027h-2.285v-12.188h2.045c1.749 0 3.108 0.433 4.079 1.301 1.325 1.201 1.999 2.823 1.999 4.856 0 2.194-0.789 3.862-2.365 5.004zM113.789 29.351l-9.984-27.739c-0.111-0.321-0.177-0.655-0.195-0.994h-4.319c0 0.354-0.057 0.731-0.195 1.108l-9.676 27.626c-0.127 0.399-0.332 0.811-0.606 1.245h2.787c-0.011-0.457 0.046-0.88 0.172-1.245l2.866-8.147h11.025l2.834 8.147c0.149 0.444 0.216 0.856 0.216 1.244h5.782c-0.332-0.468-0.571-0.891-0.709-1.245zM95.396 18.999l4.661-13.538 4.788 13.538h-9.448z"></path>
    </symbol>
    <symbol id="calvin" viewBox="0 0 196 32">
      <path d="M16.122 28.661c-6.813 0-12.628-6.179-12.628-12.919 0-6.715 5.694-13.017 12.579-13.017 4.526 0 7.785 2.19 10.438 5.621h3.333c-0.998-1.801-2.068-3.455-3.698-4.745-2.798-2.263-6.424-3.6-10.024-3.6-8.638 0-15.669 7.129-15.669 15.718 0 8.613 7.129 15.669 15.718 15.669 3.504 0 6.935-1.289 9.684-3.455 1.728-1.387 2.944-3.187 4.112-5.037h-3.333c-2.629 3.431-5.986 5.766-10.512 5.766zM50.672 12.238c-2.092-2.701-4.939-4.404-8.467-4.404-6.326 0-11.533 5.135-11.533 11.461 0 6.325 5.232 11.508 11.533 11.508 3.674 0 6.228-1.533 8.467-4.356v3.844h2.749v-21.922h-2.749v3.869zM42.060 28.272c-4.843 0-8.663-4.209-8.663-8.953 0-4.721 3.796-8.954 8.663-8.954 4.841 0 8.613 4.234 8.613 8.954 0 4.744-3.796 8.953-8.613 8.953zM56.755 30.291h2.945v-29.66h-2.945v29.66zM70.818 26.811l-7.445-18.442h-2.92l8.93 21.922h2.968l8.906-21.922h-2.871l-7.567 18.442zM82.473 30.291h2.944v-21.922h-2.944v21.922zM82.473 5.547h2.944v-4.915h-2.944v4.915zM98.093 7.833c-2.774 0-4.744 1.461-6.569 3.407v-2.871h-2.726v21.922h2.895v-13.358c-0.024-3.528 2.896-6.568 6.448-6.568 4.452 0 6.69 3.869 6.69 7.859v12.068h2.725v-12.068c0.001-5.693-3.331-10.39-9.463-10.39zM134.881 0.631l-13.382 17.008v-17.008h-2.895v29.66h2.895v-8.151l3.796-4.72 9.659 12.87h3.675l-11.486-15.207 11.486-14.453h-3.749zM139.699 30.291h2.872v-29.66h-2.872v29.66zM166.342 13.892c-1.995-3.723-5.986-6.059-10.196-6.059-6.277 0-11.582 5.232-11.582 11.509 0 6.325 5.353 11.46 11.633 11.46 2.991 0 5.937-1.192 8.101-3.26 1.315-1.241 2.093-2.798 2.797-4.429h-3.089c-1.558 3.042-4.308 5.158-7.861 5.158-2.164 0-4.281-0.876-5.886-2.36-1.656-1.507-2.386-3.358-2.703-5.547h20.221c0.001-2.287-0.316-4.476-1.435-6.472zM147.655 17.834c0.878-4.111 4.112-7.469 8.542-7.469 3.722 0 7.713 2.288 8.588 7.469h-17.13zM169.919 30.291h2.894v-21.922h-2.894v21.922zM169.919 5.645h2.894v-5.013h-2.894v5.013zM185.54 7.833c-2.824 0-4.794 1.461-6.644 3.407v-2.871h-2.774v21.922h2.92v-13.358c-0.024-3.552 2.969-6.568 6.545-6.568 4.429 0 6.766 3.869 6.766 7.859v12.068h2.725v-12.068c0-5.693-3.384-10.39-9.538-10.39z"></path>
    </symbol>
    <symbol id="prada" viewBox="0 0 195 32">
      <path stroke-linejoin="miter" stroke-linecap="butt" stroke-miterlimit="2.613" stroke-width="1.0242" d="M0.482 0.902l25.136-0.071c3.834 0.69 7.137 4.16 7.198 9.569-0.192 5.582-4.191 8.343-8.081 9.638l-12.833-0.070 0.249 8.716 2.399 2.914-13.309-0.020 2.173-3.167v-24.202l-2.932-3.307zM11.427 2.45v15.548l9.846 0.071c2.24-1.807 3.939-3.19 3.871-7.528-0.032-3.537-0.779-6.621-4.075-8.091l-9.642-0.001zM38.975 0.725l25.135-0.070c3.835 0.69 7.138 4.16 7.198 9.568-0.193 5.582-4.191 8.343-8.081 9.638l-9.792-0.053 3.064 2.61h8.694l10.415 9.008-11.411 0.093-13.75-11.728h-0.053l0.249 8.716 2.399 2.914-13.309-0.019 2.173-3.168v-24.202l-2.932-3.308zM49.919 2.273v15.548l9.846 0.071c2.241-1.807 3.939-3.19 3.871-7.529-0.032-3.536-0.779-6.621-4.075-8.091h-9.642zM86.595 0.691l1.847 0.764 4.332 5.779v1.478l-10.252 21.599-2.717 0.844 6.247 0.141-1.019-0.985c-0.521-0.815 0.181-1.313 0.272-1.969l2.716-5.77 12.698-0.071 3.735 5.981 0.136 2.064-2.174 0.68h14.464c-1.291-0.939-3.224-0.674-3.871-2.815l-14.938-27.72h-11.476zM88.824 20.598l5.274-9.985 5.491 9.929-10.765 0.056zM164.197 0.751l1.847 0.764 4.332 5.778v1.479l-10.253 21.599-2.716 0.844 6.246 0.141-1.019-0.985c-0.52-0.815 0.181-1.313 0.272-1.971l2.716-5.768 12.698-0.071 3.735 5.979 0.136 2.064-2.174 0.681h14.465c-1.291-0.939-3.225-0.674-3.871-2.815l-14.939-27.72h-11.475zM166.425 20.659l5.274-9.985 5.492 9.928-10.766 0.058zM120.849 0.402l20.443 0.113c6.583 1.542 10.772 5.564 12.071 12.58l-0.055 5.472c-1.2 6.252-5.133 10.565-12.070 12.749l-20.498 0.058-0.003-0.662c3.116-0.235 3.365-0.591 3.373-2.441v-24.935c-0.035-1.368-0.308-2.219-3.316-2.313l0.055-0.62zM132.469 2.536l-0.019 26.978c2.696 0.009 5.035 0.262 6.356-0.413 2.995-1.368 4.385-3.468 4.513-5.441l-0.072-15.93c0.001-2.548-2.765-4.347-4.362-4.816-1.142-0.423-3.42-0.441-6.416-0.378z"></path>
    </symbol>
    <symbol id="zara" viewBox="0 0 77 32">
      <path d="M73.107 31.047l-11.361-31.040h-0.224l-6.594 17.979-0.010-0.009c-1.475-1.292-3.556-2.099-6.178-2.4l-0.799-0.082 0.793-0.101c4.322-0.771 7.228-3.48 7.228-6.744 0-4.476-4.242-7.6-10.319-7.6h-12.643v0.227h3.674v23.127l-8.93-24.398h-0.224l-11.356 30.96-0.055 0.006c-0.154 0.019-0.307 0.034-0.457 0.045-0.227 0.018-0.452 0.028-0.679 0.028h-9.111l17.448-29.993h-21.183v9.209h0.225c0.040-4.486 2.672-8.985 8.489-8.985h7.017l-17.451 29.993h23.509v-8.823h-0.225c-0.031 3.91-2.264 7.623-7.121 8.462l-0.154 0.026 3.699-10.089h10.361l3.733 10.201h-3.683v0.223h14.455v-0.223h-3.699v-15.387h4.268c4.343 0 6.834 1.925 6.834 5.281v2.73c0 0.301 0.021 0.74 0.043 1.108v0.013l-2.294 6.254h-2.997v0.223h6.203v-0.223h-2.964l2.089-5.695c0.004 0.055 0.006 0.088 0.006 0.088l0.058 0.513 0.056 0.339c0.349 2.1 1.158 3.644 2.405 4.588l0.179 0.129c0.947 0.654 2.125 0.985 3.501 0.985 1.823 0 3.039-0.451 4.042-1.513l-0.132-0.123c-0.925 0.847-1.701 1.19-2.673 1.19-1.657 0-2.524-1.994-2.524-3.96v-3.824c0.009-0.949-0.141-1.893-0.443-2.793l-0.041-0.119v-0.004h7.579l3.733 10.201h-3.683v0.223h12.509v-0.223l-3.931-0.001zM20.196 20.623l5.104-13.916 5.093 13.916h-10.197zM41.285 15.436v-14.159h3.258c4.352 0 6.649 2.567 6.649 7.421 0 5.163-1.319 6.737-5.641 6.737h-4.266zM56.81 20.623l-0.022-0.055c-0.337-0.814-0.827-1.557-1.445-2.188l-0.213-0.212-0.023-0.021 4.192-11.44 5.093 13.916h-7.582z"></path>
    </symbol>
    <symbol id="gucci" viewBox="0 0 140 32">
      <path d="M126.039 10.039l-0.26 0.082c-1.007-2.083-2.447-3.741-4.318-4.975-1.843-1.233-4.16-1.85-6.953-1.85-1.555 0-3.037 0.315-4.448 0.946-1.411 0.603-2.649 1.466-3.714 2.59-1.036 1.096-1.872 2.426-2.505 3.988s-0.95 3.289-0.95 5.18c0 1.891 0.316 3.618 0.95 5.18s1.468 2.905 2.505 4.029c1.065 1.096 2.303 1.946 3.714 2.549s2.893 0.904 4.448 0.904c2.764 0 5.010-0.411 6.737-1.233 1.756-0.85 3.239-2.138 4.448-3.865l0.26 0.082-0.086 2.631c-0.662 0.658-1.425 1.247-2.289 1.768-0.864 0.493-1.799 0.918-2.807 1.275-0.979 0.329-2.001 0.576-3.066 0.74-1.066 0.192-2.131 0.288-3.196 0.288-2.217 0-4.332-0.343-6.348-1.028s-3.787-1.645-5.312-2.878c-1.526-1.261-2.735-2.768-3.628-4.523-0.892-1.782-1.34-3.755-1.34-5.92s0.447-4.125 1.34-5.879c0.892-1.782 2.101-3.303 3.628-4.564s3.296-2.22 5.312-2.878c2.015-0.685 4.131-1.028 6.348-1.028 1.066 0 2.131 0.082 3.196 0.247s2.087 0.425 3.066 0.781c1.008 0.329 1.943 0.754 2.807 1.275 0.864 0.493 1.627 1.069 2.289 1.727l0.172 4.358zM30.874 17.891c-0.317 0.137-0.619 0.315-0.907 0.535s-0.432 0.521-0.432 0.905v5.057c-1.382 1.891-3.153 3.358-5.312 4.399s-4.549 1.562-7.169 1.562c-2.217 0-4.333-0.343-6.348-1.028s-3.786-1.645-5.312-2.878c-1.526-1.261-2.735-2.768-3.628-4.523-0.892-1.782-1.339-3.755-1.339-5.92s0.446-4.125 1.339-5.879c0.893-1.782 2.102-3.303 3.628-4.564s3.297-2.22 5.312-2.878c2.015-0.685 4.131-1.028 6.348-1.028 1.065 0 2.131 0.082 3.196 0.247s2.087 0.425 3.066 0.781c1.008 0.329 1.943 0.754 2.807 1.275 0.864 0.493 1.627 1.069 2.289 1.727l0.173 4.358-0.259 0.082c-1.008-2.083-2.447-3.741-4.319-4.975-1.843-1.233-4.16-1.85-6.953-1.85-1.555 0-3.037 0.315-4.448 0.946-1.411 0.603-2.649 1.466-3.714 2.59-1.037 1.096-1.871 2.426-2.505 3.988s-0.95 3.289-0.95 5.18c0 1.864 0.302 3.577 0.907 5.139 0.633 1.562 1.468 2.905 2.505 4.029 1.065 1.096 2.303 1.96 3.714 2.59 1.411 0.603 2.908 0.905 4.491 0.905 2.994 0 5.557-0.548 7.687-1.645v-7.688c0-0.384-0.158-0.685-0.475-0.905-0.288-0.219-0.576-0.397-0.864-0.535l0.039-0.205c0.144 0.025 0.403 0.052 0.777 0.082 0.375 0.025 0.763 0.052 1.166 0.082h3.714c0.346-0.025 0.677-0.052 0.993-0.082 0.317-0.025 0.561-0.052 0.734-0.082l0.047 0.206zM62.154 2.515c-0.288 0.137-0.576 0.315-0.864 0.535s-0.446 0.63-0.475 1.233c-0.026 0.658-0.055 1.494-0.086 2.508 0 0.987-0.013 2.11-0.039 3.371 0 1.261-0.013 2.631-0.040 4.111v4.605c-0.026 1.782-0.257 3.303-0.691 4.564-0.432 1.261-1.008 2.316-1.727 3.166-0.691 0.85-1.468 1.521-2.332 2.015-0.835 0.493-1.67 0.863-2.505 1.11-0.806 0.274-1.569 0.439-2.289 0.493-0.72 0.082-1.281 0.123-1.684 0.123-1.641 0-3.225-0.206-4.751-0.617-1.526-0.384-2.865-1.014-4.016-1.891s-2.073-2.015-2.764-3.412c-0.691-1.398-1.036-3.097-1.036-5.098v-8.922c0-1.316-0.013-2.494-0.039-3.536 0-1.069-0.013-1.932-0.040-2.59-0.026-0.603-0.185-1.014-0.475-1.233-0.288-0.219-0.576-0.397-0.864-0.535l0.040-0.205c0.144 0.025 0.374 0.052 0.691 0.082 0.346 0.025 0.691 0.052 1.036 0.082 0.374 0 0.734 0.013 1.080 0.038h1.555c0.346-0.025 0.705-0.038 1.080-0.038 0.374-0.025 0.72-0.052 1.037-0.082 0.345-0.025 0.59-0.052 0.734-0.082l0.039 0.205c-0.317 0.137-0.619 0.315-0.907 0.535-0.259 0.219-0.403 0.63-0.432 1.233-0.026 0.658-0.055 1.521-0.086 2.59v12.457c0 2.988 0.734 5.194 2.202 6.619s3.642 2.138 6.521 2.138c0.835 0 1.785-0.096 2.85-0.288 1.065-0.219 2.059-0.658 2.98-1.316 0.95-0.658 1.742-1.59 2.375-2.796 0.662-1.206 0.993-2.809 0.993-4.81 0-2.165-0.013-4.015-0.040-5.55 0-1.562-0.013-2.892-0.039-3.988 0-1.124-0.013-2.083-0.039-2.878s-0.055-1.521-0.086-2.179c-0.026-0.603-0.185-1.014-0.475-1.233-0.288-0.219-0.576-0.397-0.864-0.535l0.039-0.205c0.317 0.055 0.676 0.11 1.080 0.165 0.403 0.025 0.777 0.038 1.123 0.038 0.317 0 0.676-0.013 1.080-0.038 0.432-0.055 0.806-0.11 1.123-0.165l0.027 0.206zM93.492 10.039l-0.26 0.082c-1.007-2.083-2.447-3.741-4.318-4.975-1.843-1.233-4.16-1.85-6.953-1.85-1.555 0-3.037 0.315-4.448 0.946-1.411 0.603-2.649 1.466-3.714 2.59-1.036 1.096-1.871 2.426-2.505 3.988s-0.95 3.289-0.95 5.18 0.317 3.618 0.95 5.18c0.633 1.562 1.468 2.905 2.505 4.029 1.065 1.096 2.303 1.946 3.714 2.549s2.894 0.904 4.448 0.904c2.764 0 5.010-0.411 6.737-1.233 1.756-0.85 3.239-2.138 4.448-3.865l0.26 0.082-0.086 2.631c-0.662 0.658-1.426 1.247-2.289 1.768-0.864 0.493-1.8 0.918-2.807 1.275-0.979 0.329-2.001 0.576-3.066 0.74-1.065 0.192-2.13 0.288-3.196 0.288-2.217 0-4.333-0.343-6.348-1.028s-3.786-1.645-5.312-2.878c-1.526-1.261-2.735-2.768-3.628-4.523-0.893-1.782-1.339-3.755-1.339-5.92s0.446-4.125 1.339-5.879c0.892-1.782 2.102-3.303 3.628-4.564s3.296-2.22 5.312-2.878c2.015-0.685 4.131-1.028 6.348-1.028 1.065 0 2.13 0.082 3.196 0.247s2.087 0.425 3.066 0.781c1.007 0.329 1.943 0.754 2.807 1.275 0.863 0.493 1.627 1.069 2.289 1.727l0.172 4.358zM139.055 29.65c-0.144-0.025-0.388-0.052-0.733-0.082-0.316 0-0.662-0.013-1.036-0.038-0.375 0-0.735-0.013-1.080-0.038h-2.591c-0.345 0.025-0.691 0.052-1.036 0.082-0.316 0.025-0.561 0.052-0.733 0.082l-0.040-0.165c0.288-0.137 0.576-0.315 0.864-0.535s0.446-0.63 0.475-1.233c0.027-0.658 0.039-1.343 0.039-2.056 0.027-0.713 0.040-1.521 0.040-2.426v-14.513c0-0.904-0.013-1.699-0.040-2.385 0-0.713-0.012-1.398-0.039-2.056-0.027-0.603-0.185-1.014-0.475-1.233-0.288-0.247-0.576-0.438-0.864-0.575l0.040-0.165c0.172 0.055 0.417 0.096 0.733 0.123 0.346 0 0.692 0.013 1.036 0.038 0.374 0.025 0.734 0.038 1.080 0.038h1.511c0.346-0.025 0.706-0.038 1.080-0.038 0.374-0.025 0.72-0.052 1.036-0.082 0.345-0.025 0.589-0.052 0.733-0.082l0.040 0.165c-0.316 0.137-0.619 0.329-0.908 0.575-0.259 0.219-0.403 0.63-0.432 1.233-0.026 0.658-0.055 1.343-0.086 2.056v19.323c0.027 0.713 0.055 1.398 0.086 2.056 0.027 0.603 0.171 1.014 0.432 1.233 0.289 0.219 0.591 0.397 0.908 0.535l-0.040 0.161z"></path>
    </symbol>
    <symbol id="arrow-bold" viewBox="0 0 32 32">
      <path d="M19.061 5.939l9 9c0.14 0.139 0.251 0.305 0.327 0.487s0.115 0.378 0.115 0.575c0 0.197-0.039 0.393-0.115 0.575s-0.187 0.348-0.327 0.487l-9 9c-0.282 0.282-0.664 0.44-1.062 0.44s-0.781-0.158-1.063-0.44c-0.282-0.282-0.44-0.664-0.44-1.063s0.158-0.781 0.44-1.063l6.439-6.439h-18.375c-0.398 0-0.779-0.158-1.061-0.439s-0.439-0.663-0.439-1.061c0-0.398 0.158-0.779 0.439-1.061s0.663-0.439 1.061-0.439h18.375l-6.44-6.439c-0.282-0.282-0.44-0.664-0.44-1.063s0.158-0.781 0.44-1.063c0.282-0.282 0.664-0.44 1.062-0.44s0.781 0.158 1.063 0.44l0.001 0.003z"></path>
    </symbol>
    <symbol id="email" viewBox="0 0 32 32">
      <path d="M28 5.5h-24c-0.398 0-0.779 0.158-1.061 0.439s-0.439 0.663-0.439 1.061v17c0 0.663 0.263 1.299 0.732 1.768s1.105 0.732 1.768 0.732h22c0.663 0 1.299-0.263 1.768-0.732s0.732-1.105 0.732-1.768v-17c0-0.398-0.158-0.779-0.439-1.061s-0.663-0.439-1.061-0.439zM16 15.965l-8.144-7.465h16.287l-8.144 7.465zM11.599 16l-6.099 5.59v-11.18l6.099 5.59zM13.819 18.035l1.168 1.071c0.277 0.254 0.638 0.394 1.014 0.394s0.737-0.141 1.014-0.394l1.168-1.071 5.962 5.465h-16.287l5.963-5.465zM20.401 16l6.099-5.59v11.18l-6.099-5.59z"></path>
    </symbol>
    <symbol id="twiter" viewBox="0 0 31 32">
      <path fill="#fff" style="fill: var(--color1, #fff)" d="M30.897 16.092c0 8.532-6.916 15.448-15.448 15.448s-15.448-6.916-15.448-15.448c0-8.532 6.916-15.448 15.448-15.448s15.448 6.916 15.448 15.448z"></path>
      <path fill="none" stroke="#000" style="stroke: var(--color2, #000)" stroke-linejoin="miter" stroke-linecap="butt" stroke-miterlimit="4" stroke-width="1.1034" d="M30.345 16.092c0 8.227-6.669 14.897-14.897 14.897s-14.897-6.669-14.897-14.897c0-8.227 6.669-14.897 14.897-14.897s14.897 6.669 14.897 14.897z"></path>
      <path fill="#000" style="fill: var(--color2, #000)" d="M22.297 12.763c-0.462 0.206-0.95 0.334-1.464 0.411 0.514-0.308 0.925-0.796 1.105-1.387-0.488 0.283-1.027 0.488-1.618 0.617-0.462-0.488-1.13-0.796-1.849-0.796-1.387 0-2.517 1.13-2.517 2.517 0 0.206 0.026 0.385 0.077 0.565-2.081-0.103-3.956-1.105-5.215-2.646-0.206 0.385-0.334 0.796-0.334 1.259 0 0.873 0.437 1.644 1.13 2.106-0.411-0.026-0.796-0.128-1.156-0.308v0.026c0 1.233 0.873 2.261 2.029 2.492-0.205 0.051-0.437 0.077-0.668 0.077-0.154 0-0.334-0.026-0.488-0.051 0.334 1.002 1.259 1.747 2.363 1.747-0.873 0.668-1.952 1.079-3.134 1.079-0.206 0-0.411 0-0.591-0.026 1.13 0.719 2.44 1.13 3.879 1.13 4.649 0 7.192-3.853 7.192-7.192 0-0.103 0-0.231 0-0.334 0.488-0.334 0.925-0.771 1.259-1.284z"></path>
    </symbol>
    <symbol id="facebook" viewBox="0 0 31 32">
      <path fill="#000" style="fill: var(--color2, #000)" d="M30.897 16.092c0 8.532-6.916 15.448-15.448 15.448s-15.448-6.916-15.448-15.448c0-8.532 6.916-15.448 15.448-15.448s15.448 6.916 15.448 15.448z"></path>
      <path fill="#fff" style="fill: var(--color1, #fff)" d="M14.023 23.048v-6.128h-2.062v-2.388h2.062v-1.761c0-2.044 1.248-3.157 3.072-3.157 0.873 0 1.624 0.065 1.843 0.094v2.136l-1.265 0.001c-0.992 0-1.184 0.471-1.184 1.163v1.525h2.365l-0.308 2.388h-2.057v6.128h-2.466z"></path>
    </symbol>
    <symbol id="instagram" viewBox="0 0 31 32">
      <path fill="#fff" style="fill: var(--color1, #fff)" d="M30.897 16.092c0 8.532-6.916 15.448-15.448 15.448s-15.448-6.916-15.448-15.448c0-8.532 6.916-15.448 15.448-15.448s15.448 6.916 15.448 15.448z"></path>
      <path fill="none" stroke="#000" style="stroke: var(--color2, #000)" stroke-linejoin="miter" stroke-linecap="butt" stroke-miterlimit="4" stroke-width="1.1034" d="M30.345 16.092c0 8.227-6.669 14.897-14.897 14.897s-14.897-6.669-14.897-14.897c0-8.227 6.669-14.897 14.897-14.897s14.897 6.669 14.897 14.897z"></path>
      <path fill="#000" style="fill: var(--color2, #000)" d="M15.449 9.965c1.996 0 2.232 0.007 3.021 0.043 0.474 0.006 0.944 0.093 1.388 0.257 0.322 0.124 0.615 0.315 0.86 0.559s0.435 0.537 0.559 0.86c0.165 0.445 0.252 0.914 0.257 1.388 0.036 0.788 0.043 1.025 0.043 3.021s-0.007 2.232-0.043 3.021c-0.006 0.474-0.093 0.944-0.257 1.388-0.124 0.322-0.315 0.615-0.559 0.86s-0.537 0.435-0.86 0.559c-0.445 0.165-0.914 0.252-1.388 0.257-0.788 0.036-1.024 0.043-3.021 0.043s-2.233-0.008-3.021-0.043c-0.474-0.006-0.944-0.093-1.388-0.257-0.322-0.124-0.615-0.315-0.86-0.559s-0.435-0.537-0.559-0.86c-0.165-0.445-0.252-0.914-0.257-1.388-0.036-0.788-0.043-1.025-0.043-3.021s0.007-2.232 0.043-3.021c0.006-0.474 0.093-0.944 0.257-1.388 0.124-0.322 0.315-0.615 0.559-0.86s0.537-0.435 0.86-0.559c0.445-0.165 0.914-0.252 1.388-0.257 0.789-0.036 1.025-0.043 3.021-0.043zM15.449 8.618c-2.029 0-2.285 0.009-3.082 0.045-0.62 0.012-1.234 0.13-1.815 0.347-0.498 0.188-0.95 0.482-1.323 0.862-0.381 0.373-0.675 0.825-0.863 1.324-0.218 0.581-0.335 1.195-0.347 1.815-0.036 0.797-0.044 1.052-0.044 3.081s0.009 2.284 0.045 3.082c0.012 0.62 0.13 1.234 0.347 1.815 0.188 0.499 0.482 0.951 0.862 1.324 0.373 0.38 0.825 0.675 1.324 0.862 0.581 0.218 1.195 0.335 1.815 0.347 0.797 0.036 1.052 0.045 3.082 0.045s2.284-0.009 3.082-0.045c0.62-0.012 1.234-0.13 1.815-0.347 0.496-0.192 0.947-0.486 1.323-0.863s0.67-0.828 0.862-1.324c0.218-0.581 0.335-1.195 0.347-1.815 0.036-0.797 0.044-1.052 0.044-3.081s-0.009-2.284-0.045-3.082c-0.012-0.62-0.13-1.234-0.347-1.815-0.188-0.499-0.482-0.95-0.862-1.324-0.373-0.38-0.825-0.675-1.324-0.862-0.581-0.218-1.195-0.335-1.815-0.347-0.797-0.036-1.052-0.044-3.081-0.044z"></path>
      <path fill="#000" style="fill: var(--color2, #000)" d="M15.451 12.256c-0.759 0-1.501 0.225-2.133 0.647s-1.123 1.021-1.414 1.723c-0.291 0.701-0.366 1.473-0.218 2.218s0.514 1.429 1.050 1.965 1.221 0.902 1.965 1.051c0.745 0.148 1.516 0.072 2.218-0.218s1.301-0.783 1.723-1.414c0.422-0.631 0.647-1.373 0.647-2.133 0-1.018-0.404-1.994-1.124-2.714s-1.696-1.124-2.714-1.124zM15.451 18.586c-0.493 0-0.974-0.146-1.384-0.42s-0.729-0.663-0.918-1.118-0.238-0.956-0.142-1.44c0.096-0.483 0.333-0.927 0.682-1.276s0.792-0.586 1.276-0.682c0.483-0.096 0.984-0.047 1.44 0.142s0.844 0.508 1.118 0.918c0.274 0.41 0.42 0.891 0.42 1.384 0 0.661-0.262 1.295-0.73 1.762s-1.101 0.73-1.762 0.73z"></path>
      <path fill="#000" style="fill: var(--color2, #000)" d="M19.44 13.001c0.495 0 0.897-0.402 0.897-0.897s-0.402-0.897-0.897-0.897c-0.495 0-0.897 0.402-0.897 0.897s0.402 0.897 0.897 0.897z"></path>
    </symbol>
    <symbol id="github" viewBox="0 0 31 32">
      <path fill="#fff" style="fill: var(--color1, #fff)" d="M30.897 16.092c0 8.532-6.916 15.448-15.448 15.448s-15.448-6.916-15.448-15.448c0-8.532 6.916-15.448 15.448-15.448s15.448 6.916 15.448 15.448z"></path>
      <path fill="none" stroke="#000" style="stroke: var(--color2, #000)" stroke-linejoin="miter" stroke-linecap="butt" stroke-miterlimit="4" stroke-width="1.1034" d="M30.345 16.092c0 8.227-6.669 14.897-14.897 14.897s-14.897-6.669-14.897-14.897c0-8.227 6.669-14.897 14.897-14.897s14.897 6.669 14.897 14.897z"></path>
      <path fill="#000" style="fill: var(--color2, #000)" d="M16.118 8.618c-3.962 0-7.15 3.188-7.15 7.15 0 3.158 2.056 5.839 4.886 6.793 0.358 0.060 0.477-0.149 0.477-0.358 0-0.179 0-0.626 0-1.222-1.996 0.447-2.413-0.953-2.413-0.953-0.328-0.834-0.804-1.043-0.804-1.043-0.655-0.447 0.060-0.447 0.060-0.447 0.715 0.060 1.102 0.745 1.102 0.745 0.626 1.102 1.668 0.775 2.086 0.596 0.060-0.477 0.238-0.774 0.447-0.953-1.579-0.179-3.247-0.804-3.247-3.545 0-0.775 0.268-1.43 0.745-1.907-0.060-0.179-0.328-0.894 0.060-1.907 0 0 0.596-0.179 1.966 0.745 0.566-0.149 1.192-0.238 1.787-0.238s1.222 0.089 1.788 0.238c1.37-0.923 1.966-0.745 1.966-0.745 0.387 0.983 0.149 1.698 0.060 1.907 0.447 0.506 0.745 1.132 0.745 1.907 0 2.741-1.668 3.337-3.277 3.516 0.268 0.208 0.477 0.655 0.477 1.311 0 0.953 0 1.728 0 1.966 0 0.179 0.119 0.417 0.506 0.358 2.83-0.924 4.886-3.605 4.886-6.763 0-3.962-3.188-7.15-7.15-7.15z"></path>
    </symbol>
    <symbol id="googlepay" viewBox="0 0 76 32">
      <path fill="#3c4043" style="fill: var(--color1, #3c4043)" d="M35.146 23.145h-2.614v-20.343h6.931c1.757 0 3.254 0.586 4.48 1.757 1.253 1.171 1.879 2.601 1.879 4.289 0 1.729-0.626 3.159-1.879 4.316-1.212 1.157-2.71 1.729-4.48 1.729h-4.316v8.252zM35.146 5.306v7.094h4.371c1.035 0 1.906-0.354 2.587-1.049 0.694-0.694 1.048-1.539 1.048-2.492 0-0.94-0.354-1.77-1.048-2.465-0.681-0.722-1.539-1.076-2.587-1.076h-4.371v-0.014z"></path>
      <path fill="#3c4043" style="fill: var(--color1, #3c4043)" d="M52.657 8.765c1.933 0 3.459 0.517 4.575 1.552s1.675 2.451 1.675 4.248v8.579h-2.492v-1.934h-0.109c-1.076 1.593-2.519 2.383-4.316 2.383-1.539 0-2.819-0.449-3.854-1.362s-1.552-2.043-1.552-3.404c0-1.443 0.545-2.587 1.634-3.431 1.089-0.858 2.546-1.28 4.358-1.28 1.552 0 2.832 0.286 3.826 0.858v-0.599c0-0.912-0.354-1.675-1.076-2.315s-1.566-0.953-2.533-0.953c-1.457 0-2.614 0.613-3.459 1.852l-2.301-1.443c1.266-1.838 3.146-2.751 5.624-2.751zM49.28 18.869c0 0.681 0.286 1.253 0.872 1.702 0.572 0.449 1.253 0.681 2.029 0.681 1.103 0 2.084-0.409 2.941-1.226s1.293-1.77 1.293-2.873c-0.817-0.64-1.947-0.967-3.404-0.967-1.062 0-1.947 0.259-2.655 0.763-0.722 0.531-1.076 1.171-1.076 1.92z"></path>
      <path fill="#3c4043" style="fill: var(--color1, #3c4043)" d="M73.124 9.215l-8.715 20.044h-2.696l3.241-7.013-5.746-13.031h2.846l4.14 9.995h0.054l4.031-9.995h2.846z"></path>
      <path fill="#4285f4" style="fill: var(--color2, #4285f4)" d="M24.747 13.245c0-0.852-0.076-1.668-0.218-2.452h-10.959v4.494l6.311 0.001c-0.256 1.495-1.080 2.77-2.342 3.619v2.915h3.757c2.194-2.030 3.45-5.031 3.45-8.577z"></path>
      <path fill="#34a853" style="fill: var(--color3, #34a853)" d="M17.541 18.907c-1.046 0.705-2.392 1.118-3.968 1.118-3.043 0-5.625-2.051-6.55-4.815h-3.875v3.007c1.92 3.81 5.866 6.424 10.425 6.424 3.151 0 5.798-1.036 7.725-2.82l-3.757-2.914z"></path>
      <path fill="#fabb05" style="fill: var(--color4, #fabb05)" d="M6.659 12.98c0-0.776 0.129-1.526 0.365-2.232v-3.007h-3.875c-0.794 1.575-1.24 3.354-1.24 5.238s0.448 3.663 1.24 5.238l3.875-3.007c-0.236-0.705-0.365-1.456-0.365-2.232z"></path>
      <path fill="#e94235" style="fill: var(--color5, #e94235)" d="M13.573 5.933c1.72 0 3.26 0.592 4.476 1.75l3.329-3.327c-2.022-1.883-4.658-3.039-7.805-3.039-4.558 0-8.505 2.614-10.425 6.424l3.875 3.007c0.925-2.764 3.506-4.815 6.55-4.815z"></path>
    </symbol>
    <symbol id="mastercard" viewBox="0 0 53 32">
      <path fill="#ff5f00" style="fill: var(--color6, #ff5f00)" d="M32.209 3.622h-13.447v24.165h13.447v-24.165z"></path>
      <path fill="#eb001b" style="fill: var(--color7, #eb001b)" d="M19.616 15.704c-0.002-2.327 0.525-4.624 1.542-6.718s2.497-3.928 4.327-5.365c-2.267-1.782-4.99-2.89-7.857-3.198s-5.763 0.197-8.357 1.458c-2.594 1.26-4.78 3.225-6.31 5.669s-2.341 5.27-2.341 8.153c0 2.884 0.811 5.709 2.341 8.153s3.717 4.409 6.31 5.669c2.594 1.26 5.489 1.765 8.357 1.458s5.59-1.416 7.857-3.198c-1.831-1.437-3.31-3.271-4.327-5.365s-1.544-4.39-1.542-6.718z"></path>
      <path fill="#f79e1b" style="fill: var(--color8, #f79e1b)" d="M50.35 15.704c0 2.884-0.811 5.709-2.341 8.153s-3.717 4.409-6.31 5.669c-2.594 1.26-5.49 1.765-8.357 1.458s-5.59-1.416-7.857-3.198c1.829-1.438 3.308-3.273 4.325-5.366s1.545-4.389 1.545-6.716-0.528-4.623-1.545-6.716c-1.017-2.093-2.495-3.928-4.325-5.366 2.267-1.782 4.99-2.89 7.857-3.198s5.763 0.197 8.357 1.458c2.593 1.26 4.78 3.225 6.31 5.669s2.341 5.27 2.341 8.153z"></path>
      <path fill="#f79e1b" style="fill: var(--color8, #f79e1b)" d="M48.884 25.227v-0.495h0.199v-0.101h-0.508v0.101h0.2v0.495h0.109zM49.87 25.227v-0.596h-0.156l-0.179 0.41-0.179-0.41h-0.156v0.596h0.11v-0.45l0.168 0.388h0.114l0.168-0.389v0.451h0.11z"></path>
    </symbol>
    <symbol id="paypal" viewBox="0 0 110 32">
      <path fill="#253b80" style="fill: var(--color9, #253b80)" d="M15.028 0.446h-8.191c-0.561 0-1.037 0.407-1.125 0.96l-3.313 21.001c-0.066 0.415 0.255 0.788 0.676 0.788h3.91c0.561 0 1.037-0.407 1.125-0.962l0.893-5.664c0.086-0.555 0.564-0.962 1.123-0.962h2.593c5.396 0 8.509-2.611 9.323-7.784 0.366-2.263 0.015-4.042-1.045-5.287-1.164-1.367-3.229-2.091-5.97-2.091zM15.973 8.116c-0.448 2.939-2.694 2.939-4.865 2.939h-1.236l0.867-5.489c0.052-0.331 0.339-0.576 0.674-0.576h0.566c1.479 0 2.875 0 3.596 0.843 0.43 0.503 0.561 1.25 0.397 2.283zM39.513 8.022h-3.922c-0.334 0-0.623 0.244-0.675 0.576l-0.173 1.097-0.274-0.397c-0.849-1.232-2.742-1.644-4.632-1.644-4.335 0-8.037 3.282-8.758 7.887-0.375 2.297 0.158 4.493 1.461 6.024 1.195 1.408 2.906 1.995 4.941 1.995 3.492 0 5.429-2.246 5.429-2.246l-0.175 1.090c-0.066 0.417 0.255 0.79 0.673 0.79h3.533c0.562 0 1.036-0.407 1.125-0.962l2.12-13.423c0.067-0.413-0.253-0.788-0.672-0.788zM34.045 15.655c-0.379 2.241-2.157 3.745-4.425 3.745-1.139 0-2.050-0.365-2.634-1.057-0.58-0.687-0.8-1.666-0.616-2.755 0.354-2.222 2.162-3.775 4.396-3.775 1.113 0 2.019 0.37 2.616 1.068 0.597 0.705 0.835 1.69 0.663 2.775zM56.461 8.021h3.942c0.552 0 0.874 0.619 0.56 1.072l-13.11 18.921c-0.212 0.306-0.562 0.489-0.935 0.489h-3.937c-0.554 0-0.878-0.624-0.557-1.078l4.082-5.761-4.341-12.74c-0.15-0.443 0.177-0.903 0.648-0.903h3.873c0.503 0 0.947 0.33 1.093 0.812l2.304 7.694 5.436-8.007c0.213-0.313 0.566-0.499 0.942-0.499z"></path>
      <path fill="#179bd7" style="fill: var(--color10, #179bd7)" d="M99.198 22.405l3.361-21.385c0.052-0.332 0.339-0.576 0.673-0.577h3.785c0.418 0 0.739 0.375 0.673 0.789l-3.315 21c-0.087 0.554-0.563 0.962-1.125 0.962h-3.38c-0.418 0-0.739-0.374-0.673-0.788zM73.454 0.444h-8.192c-0.559 0-1.036 0.407-1.124 0.96l-3.313 21.001c-0.066 0.415 0.255 0.788 0.673 0.788h4.203c0.391 0 0.725-0.285 0.786-0.673l0.94-5.953c0.086-0.555 0.564-0.962 1.124-0.962h2.592c5.397 0 8.51-2.611 9.324-7.784 0.367-2.263 0.014-4.042-1.045-5.287-1.163-1.367-3.227-2.091-5.968-2.091zM74.399 8.114c-0.447 2.939-2.693 2.939-4.865 2.939h-1.235l0.868-5.489c0.052-0.331 0.337-0.576 0.673-0.576h0.566c1.478 0 2.875 0 3.595 0.843 0.43 0.503 0.561 1.25 0.397 2.283zM97.936 8.020h-3.92c-0.337 0-0.623 0.244-0.673 0.576l-0.173 1.097-0.276-0.397c-0.849-1.232-2.741-1.644-4.631-1.644-4.335 0-8.035 3.282-8.756 7.887-0.374 2.297 0.157 4.493 1.46 6.024 1.198 1.408 2.906 1.995 4.94 1.995 3.492 0 5.429-2.246 5.429-2.246l-0.175 1.090c-0.066 0.417 0.255 0.79 0.676 0.79h3.531c0.559 0 1.036-0.407 1.124-0.962l2.121-13.423c0.065-0.413-0.256-0.788-0.677-0.788zM92.469 15.653c-0.376 2.241-2.157 3.745-4.426 3.745-1.137 0-2.049-0.365-2.634-1.057-0.58-0.687-0.798-1.666-0.615-2.755 0.355-2.222 2.162-3.774 4.395-3.774 1.114 0 2.019 0.37 2.616 1.068 0.6 0.706 0.837 1.69 0.663 2.775z"></path>
    </symbol>
    <symbol id="visa" viewBox="0 0 93 32">
      <path fill="#1434cb" style="fill: var(--color11, #1434cb)" d="M47.149 2.162l-5.964 27.878h-7.212l5.965-27.878h7.211zM77.491 20.163l3.797-10.469 2.185 10.469h-5.981zM85.537 30.040h6.67l-5.821-27.878h-6.157c-1.384 0-2.551 0.805-3.071 2.045l-10.82 25.833h7.573l1.503-4.163h9.252l0.868 4.163zM66.716 20.937c0.031-7.358-10.175-7.763-10.105-11.050 0.021-1.001 0.975-2.064 3.058-2.336 1.035-0.135 3.881-0.238 7.112 1.249l1.265-5.912c-1.736-0.63-3.969-1.236-6.747-1.236-7.128 0-12.145 3.79-12.187 9.216-0.045 4.013 3.581 6.252 6.314 7.587 2.809 1.367 3.754 2.242 3.741 3.464-0.019 1.872-2.241 2.696-4.315 2.728-3.626 0.057-5.731-0.979-7.408-1.76l-1.307 6.109c1.684 0.774 4.795 1.446 8.021 1.481 7.575 0 12.532-3.743 12.556-9.538zM36.844 2.162l-11.684 27.878h-7.625l-5.75-22.249c-0.349-1.37-0.653-1.872-1.714-2.449-1.732-0.94-4.595-1.823-7.114-2.37l0.172-0.81h12.271c1.564 0 2.971 1.041 3.326 2.842l3.037 16.133 7.505-18.975h7.577z"></path>
    </symbol>
    <symbol id="applepay" viewBox="0 0 77 32">
      <path d="M14.888 4.796c0.853-1.067 1.432-2.5 1.279-3.964-1.249 0.062-2.773 0.824-3.655 1.892-0.792 0.914-1.493 2.407-1.31 3.81 1.402 0.122 2.802-0.701 3.686-1.738z"></path>
      <path d="M16.152 6.808c-2.036-0.121-3.767 1.155-4.739 1.155s-2.461-1.094-4.072-1.065c-2.096 0.031-4.040 1.216-5.104 3.1-2.187 3.77-0.577 9.362 1.55 12.433 1.033 1.519 2.278 3.192 3.918 3.132 1.55-0.061 2.157-1.004 4.041-1.004 1.883 0 2.43 1.004 4.070 0.973 1.701-0.030 2.765-1.52 3.798-3.040 1.185-1.732 1.67-3.404 1.701-3.496-0.031-0.030-3.281-1.277-3.311-5.016-0.031-3.13 2.552-4.62 2.673-4.712-1.458-2.157-3.737-2.4-4.527-2.461z"></path>
      <path d="M33.877 2.571c4.425 0 7.506 3.050 7.506 7.49 0 4.456-3.144 7.522-7.616 7.522h-4.899v7.791h-3.539v-22.803h8.549zM28.867 14.613h4.061c3.082 0 4.836-1.659 4.836-4.535s-1.754-4.519-4.82-4.519h-4.077v9.055z"></path>
      <path d="M42.307 20.649c0-2.908 2.228-4.693 6.179-4.915l4.551-0.268v-1.28c0-1.849-1.248-2.955-3.334-2.955-1.976 0-3.208 0.948-3.508 2.434h-3.224c0.19-3.003 2.749-5.215 6.858-5.215 4.029 0 6.605 2.133 6.605 5.468v11.457h-3.271v-2.734h-0.079c-0.964 1.849-3.066 3.018-5.246 3.018-3.255 0-5.531-2.023-5.531-5.009zM53.037 19.148v-1.312l-4.093 0.253c-2.038 0.142-3.192 1.043-3.192 2.465 0 1.454 1.201 2.402 3.034 2.402 2.386 0 4.251-1.644 4.251-3.808z"></path>
      <path d="M59.523 31.49v-2.765c0.252 0.063 0.821 0.063 1.106 0.063 1.58 0 2.434-0.664 2.955-2.37 0-0.032 0.3-1.011 0.3-1.027l-6.005-16.64h3.697l4.204 13.527h0.063l4.204-13.527h3.603l-6.227 17.493c-1.421 4.030-3.065 5.326-6.51 5.326-0.285 0-1.138-0.032-1.391-0.079z"></path>
    </symbol>
    <symbol id="minus" viewBox="0 0 32 32">
      <path d="M28.5 16c0 0.398-0.158 0.779-0.439 1.061s-0.663 0.439-1.061 0.439h-22c-0.398 0-0.779-0.158-1.061-0.439s-0.439-0.663-0.439-1.061c0-0.398 0.158-0.779 0.439-1.061s0.663-0.439 1.061-0.439h22c0.398 0 0.779 0.158 1.061 0.439s0.439 0.663 0.439 1.061z"></path>
    </symbol>
    <symbol id="plus" viewBox="0 0 32 32">
      <path d="M28.5 16c0 0.398-0.158 0.779-0.439 1.061s-0.663 0.439-1.061 0.439h-9.5v9.5c0 0.398-0.158 0.779-0.439 1.061s-0.663 0.439-1.061 0.439c-0.398 0-0.779-0.158-1.061-0.439s-0.439-0.663-0.439-1.061v-9.5h-9.5c-0.398 0-0.779-0.158-1.061-0.439s-0.439-0.663-0.439-1.061c0-0.398 0.158-0.779 0.439-1.061s0.663-0.439 1.061-0.439h9.5v-9.5c0-0.398 0.158-0.779 0.439-1.061s0.663-0.439 1.061-0.439c0.398 0 0.779 0.158 1.061 0.439s0.439 0.663 0.439 1.061v9.5h9.5c0.398 0 0.779 0.158 1.061 0.439s0.439 0.663 0.439 1.061z"></path>
    </symbol>
  </defs>
</svg>