<svg aria-hidden="true" style="position: absolute; width: 0; height: 0; overflow: hidden;" version="1.1" xmlns="http://www.w3.org/2000/svg" xmlns:xlink="http://www.w3.org/1999/xlink">
  <defs>
    <symbol id="logo" viewBox="0 0 200 32">
      <path d="M14.616 31.341c-9.744-0.034-14.347-3.058-14.112-10.382h8.366c0.101 1.915 1.714 3.091 5.746 3.125 3.562 0.034 5.208-0.974 5.208-2.285 0-0.907-0.504-1.848-3.259-2.251l-3.629-0.571c-5.342-0.874-11.76-1.512-11.76-8.736 0-5.578 4.536-9.005 13.507-9.005 8.098 0 13.742 2.251 13.574 10.315h-8.299c-0.336-1.882-1.915-3.058-5.477-3.058-3.091 0-4.368 0.941-4.368 2.218 0 0.806 0.504 1.781 2.654 2.117l2.99 0.504c5.611 0.941 13.306 1.109 13.306 8.837 0 6.149-4.771 9.206-14.448 9.173zM51.086 2.176h9.307v28.224h-9.307v-10.214h-10.954v10.214h-9.307v-28.224h9.307v10.214h10.954v-10.214zM78.248 31.341c-9.71 0-15.994-6.014-15.994-15.053s6.283-15.053 15.994-15.053c9.71 0 15.994 6.014 15.994 15.053s-6.283 15.053-15.994 15.053zM78.248 23.31c3.696 0 6.754-2.554 6.754-7.022s-3.058-7.022-6.754-7.022c-3.696 0-6.754 2.554-6.754 7.022s3.058 7.022 6.754 7.022zM96.109 30.4v-28.224h16.027c7.694 0 12.264 3.427 12.264 11.021s-4.57 11.021-12.23 11.021h-6.754v6.182h-9.307zM105.416 16.49h5.914c2.251 0 3.696-1.109 3.696-3.293s-1.445-3.293-3.662-3.293h-5.947v6.586zM129.056 30.938c-2.52 0-4.637-2.083-4.637-4.57s2.117-4.57 4.637-4.57c2.52 0 4.637 2.083 4.637 4.57s-2.117 4.57-4.637 4.57zM151.391 31.341c-9.509 0-15.859-6.014-15.859-15.053s6.35-15.053 15.859-15.053c6.888 0 13.944 3.024 14.885 12.566h-8.87c-0.773-3.091-2.957-4.536-6.014-4.536-3.696 0-6.619 2.755-6.619 7.022s2.923 7.022 6.619 7.022c3.058 0 5.242-1.445 6.014-4.603h8.87c-0.941 9.61-7.929 12.634-14.885 12.634zM183.97 31.341c-9.71 0-15.994-6.014-15.994-15.053s6.283-15.053 15.994-15.053c9.71 0 15.994 6.014 15.994 15.053s-6.283 15.053-15.994 15.053zM183.97 23.31c3.696 0 6.754-2.554 6.754-7.022s-3.058-7.022-6.754-7.022c-3.696 0-6.754 2.554-6.754 7.022s3.058 7.022 6.754 7.022z"></path>
    </symbol>
    <symbol id="menu" viewBox="0 0 32 32">
      <path d="M28.5 16c0 0.398-0.158 0.779-0.439 1.061s-0.663 0.439-1.061 0.439h-22c-0.398 0-0.779-0.158-1.061-0.439s-0.439-0.663-0.439-1.061c0-0.398 0.158-0.779 0.439-1.061s0.663-0.439 1.061-0.439h22c0.398 0 0.779 0.158 1.061 0.439s0.439 0.663 0.439 1.061zM5 9.5h22c0.398 0 0.779-0.158 1.061-0.439s0.439-0.663 0.439-1.061c0-0.398-0.158-0.779-0.439-1.061s-0.663-0.439-1.061-0.439h-22c-0.398 0-0.779 0.158-1.061 0.439s-0.439 0.663-0.439 1.061c0 0.398 0.158 0.779 0.439 1.061s0.663 0.439 1.061 0.439zM27 22.5h-22c-0.398 0-0.779 0.158-1.061 0.439s-0.439 0.663-0.439 1.061c0 0.398 0.158 0.779 0.439 1.061s0.663 0.439 1.061 0.439h22c0.398 0 0.779-0.158 1.061-0.439s0.439-0.663 0.439-1.061c0-0.398-0.158-0.779-0.439-1.061s-0.663-0.439-1.061-0.439z"></path>
    </symbol>
    <symbol id="arrow" viewBox="0 0 32 32">
      <path d="M27.061 13.061l-10 10c-0.139 0.14-0.305 0.251-0.487 0.327s-0.378 0.115-0.575 0.115-0.393-0.039-0.575-0.115c-0.182-0.076-0.348-0.187-0.487-0.327l-10-10c-0.282-0.282-0.44-0.664-0.44-1.063s0.158-0.781 0.44-1.063c0.282-0.282 0.664-0.44 1.063-0.44s0.781 0.158 1.063 0.44l8.939 8.939 8.939-8.94c0.282-0.282 0.664-0.44 1.062-0.44s0.781 0.158 1.063 0.44 0.44 0.664 0.44 1.063c0 0.399-0.158 0.781-0.44 1.063l-0.003 0.001z"></path>
    </symbol>
    <symbol id="search" viewBox="0 0 32 32">
      <path d="M29.061 26.939l-5.936-5.939c1.78-2.319 2.611-5.229 2.324-8.139s-1.669-5.601-3.867-7.529c-2.198-1.928-5.047-2.947-7.969-2.852s-5.698 1.299-7.766 3.366-3.271 4.844-3.366 7.766c-0.096 2.922 0.924 5.771 2.852 7.969s4.619 3.581 7.529 3.867c2.91 0.287 5.819-0.544 8.139-2.324l5.941 5.942c0.14 0.14 0.305 0.25 0.487 0.326s0.378 0.114 0.575 0.114 0.393-0.039 0.575-0.114c0.182-0.075 0.348-0.186 0.487-0.326s0.25-0.305 0.326-0.487c0.075-0.182 0.114-0.378 0.114-0.575s-0.039-0.393-0.114-0.575c-0.076-0.182-0.186-0.348-0.326-0.487l-0.005-0.004zM5.5 14c0-1.681 0.499-3.325 1.433-4.722s2.261-2.487 3.815-3.131c1.553-0.643 3.262-0.812 4.911-0.484s3.163 1.138 4.352 2.326c1.189 1.189 1.998 2.703 2.326 4.352s0.16 3.358-0.484 4.911-1.733 2.881-3.131 3.815c-1.398 0.934-3.041 1.433-4.722 1.433-2.254-0.002-4.414-0.899-6.008-2.492s-2.49-3.754-2.492-6.008z"></path>
    </symbol>
    <symbol id="cart" viewBox="0 0 32 32">
      <path d="M12.5 27c0 0.494-0.147 0.978-0.421 1.389s-0.665 0.732-1.122 0.921c-0.457 0.189-0.959 0.239-1.444 0.142s-0.93-0.335-1.28-0.684-0.588-0.795-0.684-1.28c-0.096-0.485-0.047-0.988 0.142-1.444s0.51-0.847 0.921-1.122c0.411-0.275 0.894-0.421 1.389-0.421 0.663 0 1.299 0.263 1.768 0.732s0.732 1.105 0.732 1.768zM23 24.5c-0.494 0-0.978 0.147-1.389 0.421s-0.732 0.665-0.921 1.122c-0.189 0.457-0.239 0.959-0.142 1.444s0.335 0.93 0.684 1.28 0.795 0.588 1.28 0.684c0.485 0.096 0.988 0.047 1.444-0.142s0.847-0.51 1.122-0.921c0.275-0.411 0.421-0.895 0.421-1.389 0-0.663-0.263-1.299-0.732-1.768s-1.105-0.732-1.768-0.732zM29.434 9.441l-3.411 11.088c-0.218 0.717-0.661 1.345-1.264 1.79s-1.333 0.684-2.082 0.681h-12.31c-0.76-0.002-1.499-0.251-2.106-0.709s-1.049-1.1-1.26-1.83l-4.274-14.961h-1.226c-0.398 0-0.779-0.158-1.061-0.439s-0.439-0.663-0.439-1.061c0-0.398 0.158-0.779 0.439-1.061s0.663-0.439 1.061-0.439h1.602c0.543 0.002 1.071 0.179 1.504 0.506s0.749 0.786 0.9 1.307l0.911 3.186h21.582c0.235 0 0.466 0.055 0.676 0.161s0.391 0.259 0.531 0.448 0.233 0.408 0.272 0.639c0.039 0.231 0.024 0.469-0.045 0.693zM25.969 10.5h-18.695l2.611 9.137c0.030 0.105 0.093 0.197 0.18 0.262s0.193 0.101 0.301 0.101h12.31c0.107 0 0.211-0.034 0.297-0.097s0.15-0.153 0.181-0.255l2.814-9.147z"></path>
    </symbol>
    <symbol id="user" viewBox="0 0 32 32">
      <path d="M16 2.5c-2.67 0-5.28 0.792-7.5 2.275s-3.95 3.592-4.972 6.059c-1.022 2.467-1.289 5.181-0.768 7.8s1.807 5.024 3.695 6.912 4.293 3.174 6.912 3.695c2.619 0.521 5.333 0.253 7.8-0.768s4.575-2.752 6.059-4.972c1.483-2.22 2.275-4.83 2.275-7.5-0.004-3.579-1.428-7.011-3.958-9.542s-5.962-3.954-9.542-3.958zM9.946 24.571c0.696-0.952 1.607-1.727 2.659-2.26s2.215-0.812 3.394-0.812c1.18 0 2.343 0.278 3.394 0.812s1.963 1.308 2.659 2.26c-1.769 1.255-3.885 1.929-6.054 1.929s-4.284-0.674-6.054-1.929zM12.5 15c0-0.692 0.205-1.369 0.59-1.944s0.931-1.024 1.571-1.289c0.639-0.265 1.343-0.334 2.022-0.199s1.303 0.468 1.792 0.958c0.489 0.489 0.823 1.113 0.958 1.792s0.066 1.383-0.199 2.022c-0.265 0.64-0.713 1.186-1.289 1.571s-1.252 0.59-1.945 0.59c-0.928 0-1.819-0.369-2.475-1.025s-1.025-1.547-1.025-2.475zM24.25 22.493c-0.972-1.237-2.211-2.237-3.625-2.928 0.901-0.912 1.512-2.071 1.756-3.329s0.111-2.561-0.384-3.744c-0.494-1.183-1.327-2.193-2.395-2.904s-2.321-1.090-3.603-1.090-2.536 0.379-3.603 1.090c-1.067 0.711-1.9 1.721-2.395 2.904s-0.628 2.486-0.384 3.744c0.244 1.259 0.855 2.417 1.756 3.329-1.414 0.69-2.653 1.691-3.625 2.928-1.221-1.548-1.982-3.409-2.195-5.369s0.13-3.941 0.99-5.715c0.86-1.774 2.203-3.27 3.874-4.317s3.603-1.602 5.575-1.602c1.972 0 3.904 0.555 5.575 1.602s3.013 2.543 3.874 4.317c0.86 1.774 1.203 3.755 0.99 5.715s-0.974 3.821-2.195 5.369h0.013z"></path>
    </symbol>
    <symbol id="close" viewBox="0 0 31 32">
      <path d="M25.019 23.621c0.27 0.27 0.423 0.637 0.423 1.020s-0.152 0.75-0.423 1.020c-0.27 0.271-0.637 0.423-1.020 0.423s-0.749-0.152-1.020-0.423l-7.619-7.621-7.621 7.619c-0.271 0.271-0.637 0.423-1.020 0.423s-0.749-0.152-1.020-0.423c-0.271-0.27-0.423-0.637-0.423-1.020s0.152-0.75 0.423-1.020l7.621-7.619-7.619-7.621c-0.271-0.271-0.423-0.637-0.423-1.020s0.152-0.749 0.423-1.020c0.271-0.271 0.637-0.423 1.020-0.423s0.749 0.152 1.020 0.423l7.619 7.621 7.621-7.622c0.271-0.271 0.637-0.423 1.020-0.423s0.749 0.152 1.020 0.423c0.27 0.271 0.422 0.637 0.422 1.020s-0.152 0.749-0.422 1.020l-7.621 7.622 7.619 7.621z"></path>
    </symbol>
  </defs>
</svg>